<svg width="1920" height="785" viewBox="0 0 1920 785" fill="none" xmlns="http://www.w3.org/2000/svg">
<path d="M669.881 201.416C476.057 226.975 305.954 208.502 214.422 172.281C141.193 143.352 67.5198 99.8435 0 43.025V785H1920V108.751C1731.31 35.0681 1547.49 28.5774 1346.49 60.8082C1145.42 93.1342 892.068 172.048 669.881 201.416Z" fill="#0B0D19"/>
<path opacity="0.64" d="M669.881 201.416C476.057 226.975 305.954 208.502 214.422 172.281C141.193 143.352 67.5198 99.8435 1.13249e-05 43.025L0 785H1920V108.751C1731.31 35.0681 1547.49 28.5774 1346.49 60.8082C1145.42 93.1342 892.068 172.048 669.881 201.416Z" fill="url(#paint0_linear)"/>
<g filter="url(#filter0_d)">
<path d="M0 42.8595C67.5198 99.6373 141.193 143.114 214.422 172.023C305.954 208.218 476.057 226.678 669.881 201.137C892.068 171.79 1145.42 92.9328 1346.49 60.6299C1547.49 28.4223 1731.31 34.9083 1920 108.538" stroke="#8356CC" stroke-width="4" stroke-linecap="square" stroke-linejoin="round"/>
</g>
<defs>
<filter id="filter0_d" x="-42.8179" y="0.0415039" width="2005.41" height="254.958" filterUnits="userSpaceOnUse" color-interpolation-filters="sRGB">
<feFlood flood-opacity="0" result="BackgroundImageFix"/>
<feColorMatrix in="SourceAlpha" type="matrix" values="0 0 0 0 0 0 0 0 0 0 0 0 0 0 0 0 0 0 127 0"/>
<feOffset/>
<feGaussianBlur stdDeviation="20"/>
<feColorMatrix type="matrix" values="0 0 0 0 0.678431 0 0 0 0 0.478431 0 0 0 0 1 0 0 0 0.5 0"/>
<feBlend mode="normal" in2="BackgroundImageFix" result="effect1_dropShadow"/>
<feBlend mode="normal" in="SourceGraphic" in2="effect1_dropShadow" result="shape"/>
</filter>
<linearGradient id="paint0_linear" x1="1000.37" y1="123.151" x2="1002.32" y2="719.261" gradientUnits="userSpaceOnUse">
<stop stop-color="#AB78FF" stop-opacity="0.08"/>
<stop offset="0.0666667" stop-color="#AB78FF" stop-opacity="0.0793082"/>
<stop offset="0.133333" stop-color="#AB78FF" stop-opacity="0.0771592"/>
<stop offset="0.2" stop-color="#AB78FF" stop-opacity="0.0734672"/>
<stop offset="0.266667" stop-color="#AB78FF" stop-opacity="0.0682071"/>
<stop offset="0.333333" stop-color="#AB78FF" stop-opacity="0.061458"/>
<stop offset="0.4" stop-color="#AB78FF" stop-opacity="0.0534493"/>
<stop offset="0.466667" stop-color="#AB78FF" stop-opacity="0.0445847"/>
<stop offset="0.533333" stop-color="#AB78FF" stop-opacity="0.0354153"/>
<stop offset="0.6" stop-color="#AB78FF" stop-opacity="0.0265507"/>
<stop offset="0.666667" stop-color="#AB78FF" stop-opacity="0.018542"/>
<stop offset="0.733333" stop-color="#AB78FF" stop-opacity="0.0117929"/>
<stop offset="0.8" stop-color="#AB78FF" stop-opacity="0.01"/>
<stop offset="0.866667" stop-color="#AB78FF" stop-opacity="0.01"/>
<stop offset="0.933333" stop-color="#AB78FF" stop-opacity="0.01"/>
<stop offset="1" stop-color="#AB78FF" stop-opacity="0"/>
</linearGradient>
</defs>
</svg>
