<svg width="102" height="130" viewBox="0 0 102 130" fill="none" xmlns="http://www.w3.org/2000/svg">
<g filter="url(#filter0_ddddd)">
<path d="M45.5594 60.8961L47.1103 59.3466C47.2197 59.2367 47.3498 59.1495 47.493 59.09C47.6362 59.0306 47.7897 59 47.9448 59C48.2608 59 48.5579 59.1238 48.7807 59.3466L50.4496 61.0155C50.5595 61.1249 50.6467 61.255 50.7062 61.3982C50.7656 61.5414 50.7962 61.6949 50.7962 61.85C50.7962 62.166 50.6724 62.4631 50.4496 62.6859L49.2292 63.9063C49.5149 64.536 49.9121 65.1088 50.4016 65.5971C50.8898 66.0878 51.4626 66.4864 52.0923 66.7738L53.3127 65.5534C53.4221 65.4435 53.5521 65.3563 53.6953 65.2968C53.8385 65.2374 53.9921 65.2068 54.1471 65.2068C54.4631 65.2068 54.7602 65.3306 54.983 65.5534L56.6534 67.2209C56.7634 67.3305 56.8507 67.4608 56.9102 67.6042C56.9697 67.7477 57.0002 67.9015 57 68.0568C57 68.3728 56.8762 68.6699 56.6534 68.8927L55.1054 70.4408C54.75 70.7976 54.2593 71 53.7554 71C53.6491 71 53.5471 70.9913 53.4467 70.9738C51.4836 70.6505 49.5365 69.6063 47.9652 68.0364C46.3953 66.468 45.3526 64.5223 45.0249 62.5534C44.9259 61.9519 45.1254 61.333 45.5594 60.8961Z" stroke="#F6F0FF" stroke-linecap="round" stroke-linejoin="round"/>
</g>
<defs>
<filter id="filter0_ddddd" x="0.5" y="0.5" width="101" height="129" filterUnits="userSpaceOnUse" color-interpolation-filters="sRGB">
<feFlood flood-opacity="0" result="BackgroundImageFix"/>
<feColorMatrix in="SourceAlpha" type="matrix" values="0 0 0 0 0 0 0 0 0 0 0 0 0 0 0 0 0 0 127 0"/>
<feOffset dx="6" dy="6"/>
<feGaussianBlur stdDeviation="15"/>
<feColorMatrix type="matrix" values="0 0 0 0 0 0 0 0 0 0.00784314 0 0 0 0 0.0470588 0 0 0 0.3 0"/>
<feBlend mode="normal" in2="BackgroundImageFix" result="effect1_dropShadow"/>
<feColorMatrix in="SourceAlpha" type="matrix" values="0 0 0 0 0 0 0 0 0 0 0 0 0 0 0 0 0 0 127 0"/>
<feOffset dx="-6" dy="-6"/>
<feGaussianBlur stdDeviation="15"/>
<feColorMatrix type="matrix" values="0 0 0 0 0.137255 0 0 0 0 0.129412 0 0 0 0 0.227451 0 0 0 0.15 0"/>
<feBlend mode="normal" in2="effect1_dropShadow" result="effect2_dropShadow"/>
<feColorMatrix in="SourceAlpha" type="matrix" values="0 0 0 0 0 0 0 0 0 0 0 0 0 0 0 0 0 0 127 0"/>
<feOffset dx="14" dy="28"/>
<feGaussianBlur stdDeviation="15"/>
<feColorMatrix type="matrix" values="0 0 0 0 0.0156863 0 0 0 0 0.0196078 0 0 0 0 0.054902 0 0 0 0.3 0"/>
<feBlend mode="normal" in2="effect2_dropShadow" result="effect3_dropShadow"/>
<feColorMatrix in="SourceAlpha" type="matrix" values="0 0 0 0 0 0 0 0 0 0 0 0 0 0 0 0 0 0 127 0"/>
<feOffset dx="-14" dy="-28"/>
<feGaussianBlur stdDeviation="15"/>
<feColorMatrix type="matrix" values="0 0 0 0 0.137255 0 0 0 0 0.129412 0 0 0 0 0.227451 0 0 0 0.15 0"/>
<feBlend mode="normal" in2="effect3_dropShadow" result="effect4_dropShadow"/>
<feColorMatrix in="SourceAlpha" type="matrix" values="0 0 0 0 0 0 0 0 0 0 0 0 0 0 0 0 0 0 127 0"/>
<feOffset/>
<feGaussianBlur stdDeviation="8"/>
<feColorMatrix type="matrix" values="0 0 0 0 1 0 0 0 0 1 0 0 0 0 1 0 0 0 0.48 0"/>
<feBlend mode="normal" in2="effect4_dropShadow" result="effect5_dropShadow"/>
<feBlend mode="normal" in="SourceGraphic" in2="effect5_dropShadow" result="shape"/>
</filter>
</defs>
</svg>
