<svg width="240" height="254" viewBox="0 0 240 254" fill="none" xmlns="http://www.w3.org/2000/svg">
<g filter="url(#filter0_dd)">
<circle cx="120" cy="127" r="60" fill="#0B0D19"/>
</g>
<g filter="url(#filter1_dd)">
<circle cx="120" cy="127" r="51" stroke="#0B0D19" stroke-opacity="0.01" stroke-width="6"/>
</g>
<g filter="url(#filter2_iif)">
<circle cx="120" cy="127" r="54" stroke="#0B0D19" stroke-width="12"/>
</g>
<g filter="url(#filter3_d)">
<path d="M162.668 93.903C154.25 83.0505 142.013 75.8134 128.447 73.6648" stroke="#AB78FF" stroke-width="6" stroke-linecap="round"/>
</g>
<g filter="url(#filter4_d)">
<path d="M170.363 146.038C175.552 133.321 175.701 119.105 170.779 106.282" stroke="#AB78FF" stroke-width="6" stroke-linecap="round"/>
</g>
<g filter="url(#filter5_d)">
<path d="M128.695 180.134C142.302 178.27 154.688 171.291 163.332 160.617" stroke="#AB78FF" stroke-width="6" stroke-linecap="round"/>
</g>
<g filter="url(#filter6_d)">
<path d="M78.3316 161.097C86.7497 171.95 98.9869 179.187 112.553 181.335" stroke="#AB78FF" stroke-width="6" stroke-linecap="round"/>
</g>
<g filter="url(#filter7_d)">
<path d="M69.6371 107.962C64.4475 120.679 64.2987 134.895 69.2207 147.718" stroke="#AB78FF" stroke-width="6" stroke-linecap="round"/>
</g>
<g filter="url(#filter8_d)">
<path d="M111.305 73.8655C97.6978 75.7295 85.3118 82.7087 76.6682 93.3826" stroke="#AB78FF" stroke-width="6" stroke-linecap="round"/>
</g>
<path d="M120.36 122.443C122.396 122.443 124.25 122.854 125.921 123.674C127.593 124.494 128.914 125.664 129.887 127.184C130.859 128.673 131.345 130.405 131.345 132.38C131.345 134.507 130.814 136.376 129.75 137.986C128.686 139.597 127.228 140.843 125.374 141.724C123.551 142.575 121.515 143 119.267 143C114.8 143 111.305 141.633 108.783 138.898C106.261 136.163 105 132.258 105 127.184C105 123.568 105.684 120.468 107.051 117.885C108.419 115.302 110.318 113.343 112.749 112.006C115.21 110.669 118.051 110 121.272 110C122.974 110 124.599 110.198 126.149 110.593C127.729 110.957 129.066 111.489 130.16 112.188L127.425 117.612C125.845 116.548 123.855 116.017 121.454 116.017C118.75 116.017 116.608 116.807 115.028 118.387C113.448 119.967 112.597 122.261 112.475 125.269C114.359 123.385 116.988 122.443 120.36 122.443ZM118.856 137.485C120.436 137.485 121.713 137.059 122.685 136.209C123.688 135.358 124.189 134.203 124.189 132.744C124.189 131.286 123.688 130.131 122.685 129.28C121.713 128.399 120.406 127.959 118.765 127.959C117.155 127.959 115.833 128.414 114.8 129.326C113.767 130.207 113.25 131.347 113.25 132.744C113.25 134.142 113.751 135.282 114.754 136.163C115.757 137.044 117.124 137.485 118.856 137.485Z" fill="#AB78FF"/>
<defs>
<filter id="filter0_dd" x="0" y="0" width="240" height="254" filterUnits="userSpaceOnUse" color-interpolation-filters="sRGB">
<feFlood flood-opacity="0" result="BackgroundImageFix"/>
<feColorMatrix in="SourceAlpha" type="matrix" values="0 0 0 0 0 0 0 0 0 0 0 0 0 0 0 0 0 0 127 0"/>
<feOffset dx="20" dy="27"/>
<feGaussianBlur stdDeviation="20"/>
<feColorMatrix type="matrix" values="0 0 0 0 0.0156863 0 0 0 0 0.0196078 0 0 0 0 0.054902 0 0 0 0.17 0"/>
<feBlend mode="normal" in2="BackgroundImageFix" result="effect1_dropShadow"/>
<feColorMatrix in="SourceAlpha" type="matrix" values="0 0 0 0 0 0 0 0 0 0 0 0 0 0 0 0 0 0 127 0"/>
<feOffset dx="-20" dy="-27"/>
<feGaussianBlur stdDeviation="20"/>
<feColorMatrix type="matrix" values="0 0 0 0 0.137255 0 0 0 0 0.129412 0 0 0 0 0.227451 0 0 0 0.35 0"/>
<feBlend mode="normal" in2="effect1_dropShadow" result="effect2_dropShadow"/>
<feBlend mode="normal" in="SourceGraphic" in2="effect2_dropShadow" result="shape"/>
</filter>
<filter id="filter1_dd" x="10" y="24" width="200" height="188" filterUnits="userSpaceOnUse" color-interpolation-filters="sRGB">
<feFlood flood-opacity="0" result="BackgroundImageFix"/>
<feColorMatrix in="SourceAlpha" type="matrix" values="0 0 0 0 0 0 0 0 0 0 0 0 0 0 0 0 0 0 127 0"/>
<feOffset dx="-16" dy="-9"/>
<feGaussianBlur stdDeviation="20"/>
<feColorMatrix type="matrix" values="0 0 0 0 0.209896 0 0 0 0 0.150694 0 0 0 0 0.258333 0 0 0 0.8 0"/>
<feBlend mode="normal" in2="BackgroundImageFix" result="effect1_dropShadow"/>
<feColorMatrix in="SourceAlpha" type="matrix" values="0 0 0 0 0 0 0 0 0 0 0 0 0 0 0 0 0 0 127 0"/>
<feOffset dx="16" dy="8"/>
<feGaussianBlur stdDeviation="10"/>
<feColorMatrix type="matrix" values="0 0 0 0 0.0156863 0 0 0 0 0.0196078 0 0 0 0 0.054902 0 0 0 1 0"/>
<feBlend mode="normal" in2="effect1_dropShadow" result="effect2_dropShadow"/>
<feBlend mode="normal" in="SourceGraphic" in2="effect2_dropShadow" result="shape"/>
</filter>
<filter id="filter2_iif" x="57" y="64" width="127" height="127" filterUnits="userSpaceOnUse" color-interpolation-filters="sRGB">
<feFlood flood-opacity="0" result="BackgroundImageFix"/>
<feBlend mode="normal" in="SourceGraphic" in2="BackgroundImageFix" result="shape"/>
<feColorMatrix in="SourceAlpha" type="matrix" values="0 0 0 0 0 0 0 0 0 0 0 0 0 0 0 0 0 0 127 0" result="hardAlpha"/>
<feOffset dx="4" dy="4"/>
<feGaussianBlur stdDeviation="2.5"/>
<feComposite in2="hardAlpha" operator="arithmetic" k2="-1" k3="1"/>
<feColorMatrix type="matrix" values="0 0 0 0 0 0 0 0 0 0.00654762 0 0 0 0 0.0458333 0 0 0 0.47 0"/>
<feBlend mode="normal" in2="shape" result="effect1_innerShadow"/>
<feColorMatrix in="SourceAlpha" type="matrix" values="0 0 0 0 0 0 0 0 0 0 0 0 0 0 0 0 0 0 127 0" result="hardAlpha"/>
<feOffset dx="-3" dy="-3"/>
<feGaussianBlur stdDeviation="2.5"/>
<feComposite in2="hardAlpha" operator="arithmetic" k2="-1" k3="1"/>
<feColorMatrix type="matrix" values="0 0 0 0 0.204554 0 0 0 0 0.155069 0 0 0 0 0.241667 0 0 0 0.1 0"/>
<feBlend mode="normal" in2="effect1_innerShadow" result="effect2_innerShadow"/>
<feGaussianBlur stdDeviation="0.5" result="effect3_foregroundBlur"/>
</filter>
<filter id="filter3_d" x="105.447" y="50.6644" width="80.2215" height="66.2388" filterUnits="userSpaceOnUse" color-interpolation-filters="sRGB">
<feFlood flood-opacity="0" result="BackgroundImageFix"/>
<feColorMatrix in="SourceAlpha" type="matrix" values="0 0 0 0 0 0 0 0 0 0 0 0 0 0 0 0 0 0 127 0"/>
<feOffset/>
<feGaussianBlur stdDeviation="10"/>
<feColorMatrix type="matrix" values="0 0 0 0 0.670588 0 0 0 0 0.470588 0 0 0 0 1 0 0 0 1 0"/>
<feBlend mode="normal" in2="BackgroundImageFix" result="effect1_dropShadow"/>
<feBlend mode="normal" in="SourceGraphic" in2="effect1_dropShadow" result="shape"/>
</filter>
<filter id="filter4_d" x="147.362" y="83.2814" width="50.0038" height="85.7569" filterUnits="userSpaceOnUse" color-interpolation-filters="sRGB">
<feFlood flood-opacity="0" result="BackgroundImageFix"/>
<feColorMatrix in="SourceAlpha" type="matrix" values="0 0 0 0 0 0 0 0 0 0 0 0 0 0 0 0 0 0 127 0"/>
<feOffset/>
<feGaussianBlur stdDeviation="10"/>
<feColorMatrix type="matrix" values="0 0 0 0 0.670588 0 0 0 0 0.470588 0 0 0 0 1 0 0 0 1 0"/>
<feBlend mode="normal" in2="BackgroundImageFix" result="effect1_dropShadow"/>
<feBlend mode="normal" in="SourceGraphic" in2="effect1_dropShadow" result="shape"/>
</filter>
<filter id="filter5_d" x="105.694" y="137.617" width="80.6377" height="65.5175" filterUnits="userSpaceOnUse" color-interpolation-filters="sRGB">
<feFlood flood-opacity="0" result="BackgroundImageFix"/>
<feColorMatrix in="SourceAlpha" type="matrix" values="0 0 0 0 0 0 0 0 0 0 0 0 0 0 0 0 0 0 127 0"/>
<feOffset/>
<feGaussianBlur stdDeviation="10"/>
<feColorMatrix type="matrix" values="0 0 0 0 0.670588 0 0 0 0 0.470588 0 0 0 0 1 0 0 0 1 0"/>
<feBlend mode="normal" in2="BackgroundImageFix" result="effect1_dropShadow"/>
<feBlend mode="normal" in="SourceGraphic" in2="effect1_dropShadow" result="shape"/>
</filter>
<filter id="filter6_d" x="55.3314" y="138.097" width="80.2215" height="66.2388" filterUnits="userSpaceOnUse" color-interpolation-filters="sRGB">
<feFlood flood-opacity="0" result="BackgroundImageFix"/>
<feColorMatrix in="SourceAlpha" type="matrix" values="0 0 0 0 0 0 0 0 0 0 0 0 0 0 0 0 0 0 127 0"/>
<feOffset/>
<feGaussianBlur stdDeviation="10"/>
<feColorMatrix type="matrix" values="0 0 0 0 0.670588 0 0 0 0 0.470588 0 0 0 0 1 0 0 0 1 0"/>
<feBlend mode="normal" in2="BackgroundImageFix" result="effect1_dropShadow"/>
<feBlend mode="normal" in="SourceGraphic" in2="effect1_dropShadow" result="shape"/>
</filter>
<filter id="filter7_d" x="42.634" y="84.9617" width="50.0038" height="85.7569" filterUnits="userSpaceOnUse" color-interpolation-filters="sRGB">
<feFlood flood-opacity="0" result="BackgroundImageFix"/>
<feColorMatrix in="SourceAlpha" type="matrix" values="0 0 0 0 0 0 0 0 0 0 0 0 0 0 0 0 0 0 127 0"/>
<feOffset/>
<feGaussianBlur stdDeviation="10"/>
<feColorMatrix type="matrix" values="0 0 0 0 0.670588 0 0 0 0 0.470588 0 0 0 0 1 0 0 0 1 0"/>
<feBlend mode="normal" in2="BackgroundImageFix" result="effect1_dropShadow"/>
<feBlend mode="normal" in="SourceGraphic" in2="effect1_dropShadow" result="shape"/>
</filter>
<filter id="filter8_d" x="53.6681" y="50.8652" width="80.6377" height="65.5175" filterUnits="userSpaceOnUse" color-interpolation-filters="sRGB">
<feFlood flood-opacity="0" result="BackgroundImageFix"/>
<feColorMatrix in="SourceAlpha" type="matrix" values="0 0 0 0 0 0 0 0 0 0 0 0 0 0 0 0 0 0 127 0"/>
<feOffset/>
<feGaussianBlur stdDeviation="10"/>
<feColorMatrix type="matrix" values="0 0 0 0 0.670588 0 0 0 0 0.470588 0 0 0 0 1 0 0 0 1 0"/>
<feBlend mode="normal" in2="BackgroundImageFix" result="effect1_dropShadow"/>
<feBlend mode="normal" in="SourceGraphic" in2="effect1_dropShadow" result="shape"/>
</filter>
</defs>
</svg>
