<svg width="122" height="150" viewBox="0 0 122 150" fill="none" xmlns="http://www.w3.org/2000/svg">
<g filter="url(#filter0_ddddd)">
<path d="M45.6585 66.1701L59.9731 59.2765C60.4794 59.0604 60.544 59.0086 60.9854 59.0008C61.4268 58.993 61.5222 59.0399 62.0323 59.2315L73.4981 63.5403C75.1927 64.177 76.04 64.4954 76.52 65.1807C77 65.8659 77 66.7569 77 68.5391V81.644C77 82.3689 77 82.7314 76.8293 83.034C76.6586 83.3366 76.3457 83.5287 75.72 83.9131L61.958 90.9184M56.5754 61.172L68.0413 65.4807C69.7359 66.1175 70.5831 66.4359 71.0632 67.1211C71.5432 67.8063 71.5432 68.6974 71.5432 70.4795V81.8071C71.5432 81.9311 71.3968 81.9991 71.2997 81.9203L69.7973 80.7007C69.7272 80.6437 69.6221 80.6614 69.5752 80.7381L67.9469 83.396C67.869 83.5232 67.6706 83.4688 67.6706 83.3202V73.2831C67.6706 71.5042 67.6706 70.6147 67.1919 69.9302C66.7133 69.2456 65.8681 68.9263 64.1778 68.2877L51.4317 63.3717M45 69.2726V81.3029C45 83.0818 45 83.9713 45.4787 84.6559C45.9573 85.3404 46.8025 85.6597 48.4928 86.2983L59.0064 90.2702C60.6866 90.905 61.5268 91.2224 62.1178 90.8237C62.7088 90.425 62.7088 89.5408 62.7088 87.7725V81.9644C62.7088 80.1855 62.7088 73.0738 62.2301 72.3892C61.7515 71.7047 60.9063 71.3854 59.216 70.7468L48.7024 66.7749C47.0222 66.1401 46.182 65.8227 45.591 66.2214C45 66.6201 45 67.5043 45 69.2726Z" stroke="#F6F0FF" stroke-linecap="round" stroke-linejoin="round"/>
</g>
<defs>
<filter id="filter0_ddddd" x="0.5" y="0.5" width="121" height="149" filterUnits="userSpaceOnUse" color-interpolation-filters="sRGB">
<feFlood flood-opacity="0" result="BackgroundImageFix"/>
<feColorMatrix in="SourceAlpha" type="matrix" values="0 0 0 0 0 0 0 0 0 0 0 0 0 0 0 0 0 0 127 0"/>
<feOffset dx="6" dy="6"/>
<feGaussianBlur stdDeviation="15"/>
<feColorMatrix type="matrix" values="0 0 0 0 0 0 0 0 0 0.00784314 0 0 0 0 0.0470588 0 0 0 0.3 0"/>
<feBlend mode="normal" in2="BackgroundImageFix" result="effect1_dropShadow"/>
<feColorMatrix in="SourceAlpha" type="matrix" values="0 0 0 0 0 0 0 0 0 0 0 0 0 0 0 0 0 0 127 0"/>
<feOffset dx="-6" dy="-6"/>
<feGaussianBlur stdDeviation="15"/>
<feColorMatrix type="matrix" values="0 0 0 0 0.137255 0 0 0 0 0.129412 0 0 0 0 0.227451 0 0 0 0.15 0"/>
<feBlend mode="normal" in2="effect1_dropShadow" result="effect2_dropShadow"/>
<feColorMatrix in="SourceAlpha" type="matrix" values="0 0 0 0 0 0 0 0 0 0 0 0 0 0 0 0 0 0 127 0"/>
<feOffset dx="14" dy="28"/>
<feGaussianBlur stdDeviation="15"/>
<feColorMatrix type="matrix" values="0 0 0 0 0.0156863 0 0 0 0 0.0196078 0 0 0 0 0.054902 0 0 0 0.3 0"/>
<feBlend mode="normal" in2="effect2_dropShadow" result="effect3_dropShadow"/>
<feColorMatrix in="SourceAlpha" type="matrix" values="0 0 0 0 0 0 0 0 0 0 0 0 0 0 0 0 0 0 127 0"/>
<feOffset dx="-14" dy="-28"/>
<feGaussianBlur stdDeviation="15"/>
<feColorMatrix type="matrix" values="0 0 0 0 0.137255 0 0 0 0 0.129412 0 0 0 0 0.227451 0 0 0 0.15 0"/>
<feBlend mode="normal" in2="effect3_dropShadow" result="effect4_dropShadow"/>
<feColorMatrix in="SourceAlpha" type="matrix" values="0 0 0 0 0 0 0 0 0 0 0 0 0 0 0 0 0 0 127 0"/>
<feOffset/>
<feGaussianBlur stdDeviation="8"/>
<feColorMatrix type="matrix" values="0 0 0 0 1 0 0 0 0 1 0 0 0 0 1 0 0 0 0.48 0"/>
<feBlend mode="normal" in2="effect4_dropShadow" result="effect5_dropShadow"/>
<feBlend mode="normal" in="SourceGraphic" in2="effect5_dropShadow" result="shape"/>
</filter>
</defs>
</svg>
