<svg width="40" height="40" viewBox="0 0 40 40" fill="none" xmlns="http://www.w3.org/2000/svg">
<path d="M30.4057 26.163L24.0417 19.799L30.4057 13.435C31.1866 12.6541 31.1866 11.3875 30.4057 10.6066L28.9915 9.19239C28.2105 8.41148 26.9439 8.41148 26.163 9.19239L19.7991 15.5563L13.4351 9.19239C12.6542 8.41148 11.3876 8.41148 10.6067 9.19239L9.19247 10.6066C8.41156 11.3875 8.41156 12.6541 9.19247 13.435L15.5564 19.799L9.19247 26.163C8.41156 26.9439 8.41156 28.2105 9.19247 28.9914L10.6067 30.4056C11.3876 31.1865 12.6542 31.1865 13.4351 30.4056L19.7991 24.0416L26.163 30.4056C26.9439 31.1865 28.2105 31.1865 28.9915 30.4056L30.4057 28.9914C31.1866 28.2105 31.1866 26.9439 30.4057 26.163Z" fill="#AB78FF"/>
</svg>
