<svg width="28" height="33" viewBox="0 0 28 33" fill="none" xmlns="http://www.w3.org/2000/svg">
<path d="M26 13.4062H17V4.125C17 2.98611 16.1044 2.0625 15 2.0625H13C11.8956 2.0625 11 2.98611 11 4.125V13.4062H2C0.895625 13.4062 0 14.3299 0 15.4688V17.5312C0 18.6701 0.895625 19.5938 2 19.5938H11V28.875C11 30.0139 11.8956 30.9375 13 30.9375H15C16.1044 30.9375 17 30.0139 17 28.875V19.5938H26C27.1044 19.5938 28 18.6701 28 17.5312V15.4688C28 14.3299 27.1044 13.4062 26 13.4062Z" fill="#AB78FF"/>
</svg>
