<svg width="307" height="303" viewBox="0 0 307 303" fill="none" xmlns="http://www.w3.org/2000/svg">
<path opacity="0.4" d="M93 47V168.5M93 168.5L250.5 232.5M93 168.5L1.5 212.5" stroke="#241838" stroke-width="2" stroke-linecap="round" stroke-linejoin="round"/>
<g filter="url(#filter0_f)">
<path fill-rule="evenodd" clip-rule="evenodd" d="M92.9335 256.456C90.3735 254.978 86.223 254.978 83.663 256.456L82.5042 257.125C79.3043 258.972 79.3043 261.968 82.5042 263.815C85.7042 265.662 90.8923 265.662 94.0923 263.815L95.2511 263.146C97.811 261.668 97.811 259.272 95.2511 257.794L92.9335 256.456ZM103.38 243.587C103.319 243.621 103.248 243.662 103.105 243.744L95.3801 248.204C91.4691 250.462 91.4691 254.123 95.3801 256.381C99.2912 258.639 105.632 258.639 109.543 256.381L117.269 251.921C117.411 251.839 117.482 251.798 117.541 251.762C118.982 250.901 119.856 249.843 120.165 248.741C120.277 248.691 120.384 248.635 120.487 248.576L137.226 238.912C138.648 238.091 138.648 236.76 137.226 235.939C135.803 235.117 133.498 235.117 132.075 235.939L117.895 244.126C117.781 244.05 117.663 243.976 117.541 243.903C117.482 243.867 117.411 243.826 117.269 243.744C117.126 243.662 117.055 243.621 116.994 243.587C116.867 243.516 116.739 243.448 116.608 243.382L130.788 235.195C132.21 234.374 132.21 233.043 130.788 232.222C129.366 231.401 127.06 231.401 125.638 232.222L108.899 241.886C108.796 241.945 108.701 242.007 108.613 242.072C106.705 242.25 104.871 242.755 103.38 243.587Z" fill="#0A0D1D"/>
</g>
<path fill-rule="evenodd" clip-rule="evenodd" d="M131.324 190.592C128.368 190.592 125.972 188.195 125.972 185.239V183.901C125.972 180.206 128.967 177.211 132.662 177.211C136.357 177.211 139.353 180.206 139.353 183.901V185.239C139.353 188.195 136.956 190.592 134.001 190.592H131.324ZM124.487 209.492C124.485 209.423 124.485 209.34 124.485 209.176V200.255C124.485 195.739 128.146 192.078 132.662 192.078C137.179 192.078 140.84 195.739 140.84 200.255V209.176C140.84 209.34 140.84 209.423 140.838 209.492C140.809 211.184 140.255 212.748 139.332 214.028C139.346 214.143 139.353 214.261 139.353 214.38V233.707C139.353 235.349 138.022 236.681 136.379 236.681C134.737 236.681 133.406 235.349 133.406 233.707V217.333C133.264 217.343 133.122 217.349 132.979 217.352C132.909 217.353 132.827 217.353 132.662 217.353C132.498 217.353 132.416 217.353 132.346 217.352C132.203 217.349 132.06 217.343 131.919 217.333V233.707C131.919 235.349 130.588 236.681 128.946 236.681C127.303 236.681 125.972 235.349 125.972 233.707V214.38C125.972 214.261 125.979 214.143 125.993 214.028C125.07 212.748 124.516 211.184 124.487 209.492Z" fill="#33334C"/>
<mask id="mask0" mask-type="alpha" maskUnits="userSpaceOnUse" x="124" y="177" width="17" height="60">
<path fill-rule="evenodd" clip-rule="evenodd" d="M131.324 190.592C128.368 190.592 125.972 188.195 125.972 185.239V183.901C125.972 180.206 128.967 177.211 132.662 177.211C136.357 177.211 139.353 180.206 139.353 183.901V185.239C139.353 188.195 136.956 190.592 134.001 190.592H131.324ZM124.487 209.492C124.485 209.423 124.485 209.34 124.485 209.176V200.255C124.485 195.739 128.146 192.078 132.662 192.078C137.179 192.078 140.84 195.739 140.84 200.255V209.176C140.84 209.34 140.84 209.423 140.838 209.492C140.809 211.184 140.255 212.748 139.332 214.028C139.346 214.143 139.353 214.261 139.353 214.38V233.707C139.353 235.349 138.022 236.681 136.379 236.681C134.737 236.681 133.406 235.349 133.406 233.707V217.333C133.264 217.343 133.122 217.349 132.979 217.352C132.909 217.353 132.827 217.353 132.662 217.353C132.498 217.353 132.416 217.353 132.346 217.352C132.203 217.349 132.06 217.343 131.919 217.333V233.707C131.919 235.349 130.588 236.681 128.946 236.681C127.303 236.681 125.972 235.349 125.972 233.707V214.38C125.972 214.261 125.979 214.143 125.993 214.028C125.07 212.748 124.516 211.184 124.487 209.492Z" fill="#141417"/>
</mask>
<g>
<path fill-rule="evenodd" clip-rule="evenodd" d="M129.838 192.08C126.882 192.08 124.486 189.684 124.486 186.728V185.39C124.486 181.695 127.481 178.699 131.176 178.699C134.871 178.699 137.866 181.695 137.866 185.39V186.728C137.866 189.684 135.47 192.08 132.514 192.08H129.838ZM123 210.98C122.999 210.911 122.999 210.829 122.999 210.664V201.744C122.999 197.228 126.66 193.567 131.176 193.567C135.692 193.567 139.353 197.228 139.353 201.744V210.664C139.353 210.829 139.353 210.911 139.352 210.98C139.322 212.673 138.768 214.236 137.846 215.516C137.859 215.631 137.866 215.749 137.866 215.868V235.195C137.866 236.838 136.535 238.169 134.893 238.169C133.251 238.169 131.919 236.838 131.919 235.195V218.821C131.778 218.831 131.635 218.838 131.492 218.84C131.422 218.841 131.34 218.841 131.176 218.841C131.011 218.841 130.929 218.841 130.86 218.84C130.716 218.838 130.574 218.831 130.432 218.821V235.195C130.432 236.838 129.101 238.169 127.459 238.169C125.817 238.169 124.486 236.838 124.486 235.195V215.868C124.486 215.749 124.493 215.631 124.506 215.516C123.583 214.236 123.029 212.673 123 210.98Z" fill="#1D1D2D"/>
</g>
<g filter="url(#filter1_f)">
<path fill-rule="evenodd" clip-rule="evenodd" d="M68.5106 261.245C65.9507 259.767 61.8001 259.767 59.2402 261.245L58.0814 261.914C54.8815 263.761 54.8815 266.757 58.0814 268.604C61.2813 270.452 66.4695 270.452 69.6694 268.604L70.8282 267.935C73.3882 266.457 73.3882 264.061 70.8282 262.583L68.5106 261.245ZM78.9575 248.376C78.8962 248.41 78.825 248.451 78.6826 248.533L70.9573 252.993C67.0463 255.251 67.0463 258.912 70.9573 261.17C74.8683 263.428 81.2094 263.428 85.1204 261.17L92.8458 256.71C92.9882 256.628 93.0594 256.587 93.1185 256.551C94.5587 255.691 95.4333 254.632 95.7423 253.53C95.8539 253.48 95.9615 253.424 96.0645 253.365L112.803 243.701C114.225 242.88 114.225 241.549 112.803 240.728C111.381 239.907 109.075 239.907 107.652 240.728L93.4722 248.915C93.3584 248.839 93.2405 248.765 93.1185 248.692C93.0593 248.656 92.9882 248.615 92.8458 248.533C92.7034 248.451 92.6322 248.41 92.5709 248.376C92.4446 248.305 92.3158 248.237 92.1847 248.171L106.365 239.984C107.787 239.163 107.787 237.832 106.365 237.011C104.943 236.19 102.637 236.19 101.215 237.011L84.4765 246.675C84.3735 246.734 84.2779 246.796 84.1898 246.861C82.2824 247.039 80.4485 247.544 78.9575 248.376Z" fill="#0A0D1D"/>
</g>
<path fill-rule="evenodd" clip-rule="evenodd" d="M106.902 195.381C103.946 195.381 101.549 192.984 101.549 190.028V188.69C101.549 184.995 104.545 182 108.24 182C111.935 182 114.93 184.995 114.93 188.69V190.028C114.93 192.984 112.534 195.381 109.578 195.381H106.902ZM100.064 214.281C100.062 214.212 100.062 214.129 100.062 213.965V205.045C100.062 200.528 103.724 196.867 108.24 196.867C112.756 196.867 116.417 200.528 116.417 205.045V213.965C116.417 214.129 116.417 214.212 116.415 214.281C116.386 215.973 115.832 217.537 114.909 218.817C114.923 218.932 114.93 219.05 114.93 219.169V238.496C114.93 240.138 113.599 241.47 111.956 241.47C110.314 241.47 108.983 240.138 108.983 238.496V222.122C108.842 222.132 108.699 222.138 108.556 222.141C108.486 222.142 108.404 222.142 108.24 222.142C108.075 222.142 107.993 222.142 107.923 222.141C107.78 222.138 107.638 222.132 107.496 222.122V238.496C107.496 240.138 106.165 241.47 104.523 241.47C102.881 241.47 101.549 240.138 101.549 238.496V219.169C101.549 219.05 101.556 218.932 101.57 218.817C100.647 217.537 100.093 215.973 100.064 214.281Z" fill="#33334C"/>
<mask id="mask1" mask-type="alpha" maskUnits="userSpaceOnUse" x="100" y="182" width="17" height="60">
<path fill-rule="evenodd" clip-rule="evenodd" d="M106.902 195.381C103.946 195.381 101.549 192.984 101.549 190.028V188.69C101.549 184.995 104.545 182 108.24 182C111.935 182 114.93 184.995 114.93 188.69V190.028C114.93 192.984 112.534 195.381 109.578 195.381H106.902ZM100.064 214.281C100.062 214.212 100.062 214.129 100.062 213.965V205.045C100.062 200.528 103.724 196.867 108.24 196.867C112.756 196.867 116.417 200.528 116.417 205.045V213.965C116.417 214.129 116.417 214.212 116.415 214.281C116.386 215.973 115.832 217.537 114.909 218.817C114.923 218.932 114.93 219.05 114.93 219.169V238.496C114.93 240.138 113.599 241.47 111.956 241.47C110.314 241.47 108.983 240.138 108.983 238.496V222.122C108.842 222.132 108.699 222.138 108.556 222.141C108.486 222.142 108.404 222.142 108.24 222.142C108.075 222.142 107.993 222.142 107.923 222.141C107.78 222.138 107.638 222.132 107.496 222.122V238.496C107.496 240.138 106.165 241.47 104.523 241.47C102.881 241.47 101.549 240.138 101.549 238.496V219.169C101.549 219.05 101.556 218.932 101.57 218.817C100.647 217.537 100.093 215.973 100.064 214.281Z" fill="#141417"/>
</mask>
<g>
<path fill-rule="evenodd" clip-rule="evenodd" d="M105.415 196.869C102.459 196.869 100.063 194.473 100.063 191.517V190.179C100.063 186.484 103.058 183.488 106.753 183.488C110.448 183.488 113.443 186.484 113.443 190.179V191.517C113.443 194.473 111.047 196.869 108.091 196.869H105.415ZM98.5771 215.769C98.5759 215.7 98.5759 215.618 98.5759 215.453V206.533C98.5759 202.017 102.237 198.356 106.753 198.356C111.269 198.356 114.93 202.017 114.93 206.533V215.453C114.93 215.618 114.93 215.7 114.929 215.769C114.899 217.462 114.346 219.025 113.423 220.305C113.436 220.42 113.443 220.538 113.443 220.657V239.985C113.443 241.627 112.112 242.958 110.47 242.958C108.828 242.958 107.496 241.627 107.496 239.985V223.61C107.355 223.62 107.213 223.627 107.069 223.629C107 223.63 106.917 223.63 106.753 223.63C106.589 223.63 106.506 223.63 106.437 223.629C106.293 223.627 106.151 223.62 106.01 223.61V239.985C106.01 241.627 104.678 242.958 103.036 242.958C101.394 242.958 100.063 241.627 100.063 239.985V220.657C100.063 220.538 100.07 220.42 100.083 220.305C99.1604 219.025 98.6066 217.462 98.5771 215.769Z" fill="#1D1D2D"/>
</g>
<g filter="url(#filter2_f)">
<path fill-rule="evenodd" clip-rule="evenodd" d="M100.511 290.245C97.9507 288.767 93.8001 288.767 91.2402 290.245L90.0814 290.914C86.8815 292.761 86.8815 295.757 90.0814 297.604C93.2813 299.452 98.4695 299.452 101.669 297.604L102.828 296.935C105.388 295.457 105.388 293.061 102.828 291.583L100.511 290.245ZM110.957 277.376C110.896 277.41 110.825 277.451 110.683 277.533L102.957 281.993C99.0463 284.251 99.0463 287.912 102.957 290.17C106.868 292.428 113.209 292.428 117.12 290.17L124.846 285.71C124.988 285.628 125.059 285.587 125.119 285.551C126.559 284.691 127.433 283.632 127.742 282.53C127.854 282.48 127.961 282.424 128.064 282.365L144.803 272.701C146.225 271.88 146.225 270.549 144.803 269.728C143.381 268.907 141.075 268.907 139.652 269.728L125.472 277.915C125.358 277.839 125.24 277.765 125.119 277.692C125.059 277.656 124.988 277.615 124.846 277.533C124.703 277.451 124.632 277.41 124.571 277.376C124.445 277.305 124.316 277.237 124.185 277.171L138.365 268.984C139.787 268.163 139.787 266.832 138.365 266.011C136.943 265.19 134.637 265.19 133.215 266.011L116.477 275.675C116.373 275.734 116.278 275.796 116.19 275.861C114.282 276.039 112.449 276.544 110.957 277.376Z" fill="#0A0D1D"/>
</g>
<path fill-rule="evenodd" clip-rule="evenodd" d="M138.902 224.381C135.946 224.381 133.549 221.984 133.549 219.028V217.69C133.549 213.995 136.545 211 140.24 211C143.935 211 146.93 213.995 146.93 217.69V219.028C146.93 221.984 144.534 224.381 141.578 224.381H138.902ZM132.064 243.281C132.062 243.212 132.062 243.129 132.062 242.965V234.045C132.062 229.528 135.724 225.867 140.24 225.867C144.756 225.867 148.417 229.528 148.417 234.045V242.965C148.417 243.129 148.417 243.212 148.415 243.281C148.386 244.973 147.832 246.537 146.909 247.817C146.923 247.932 146.93 248.05 146.93 248.169V267.496C146.93 269.138 145.599 270.47 143.956 270.47C142.314 270.47 140.983 269.138 140.983 267.496V251.122C140.842 251.132 140.699 251.138 140.556 251.141C140.486 251.142 140.404 251.142 140.24 251.142C140.075 251.142 139.993 251.142 139.923 251.141C139.78 251.138 139.638 251.132 139.496 251.122V267.496C139.496 269.138 138.165 270.47 136.523 270.47C134.881 270.47 133.549 269.138 133.549 267.496V248.169C133.549 248.05 133.556 247.932 133.57 247.817C132.647 246.537 132.093 244.973 132.064 243.281Z" fill="#33334C"/>
<mask id="mask2" mask-type="alpha" maskUnits="userSpaceOnUse" x="132" y="211" width="17" height="60">
<path fill-rule="evenodd" clip-rule="evenodd" d="M138.902 224.381C135.946 224.381 133.549 221.984 133.549 219.028V217.69C133.549 213.995 136.545 211 140.24 211C143.935 211 146.93 213.995 146.93 217.69V219.028C146.93 221.984 144.534 224.381 141.578 224.381H138.902ZM132.064 243.281C132.062 243.212 132.062 243.129 132.062 242.965V234.045C132.062 229.528 135.724 225.867 140.24 225.867C144.756 225.867 148.417 229.528 148.417 234.045V242.965C148.417 243.129 148.417 243.212 148.415 243.281C148.386 244.973 147.832 246.537 146.909 247.817C146.923 247.932 146.93 248.05 146.93 248.169V267.496C146.93 269.138 145.599 270.47 143.956 270.47C142.314 270.47 140.983 269.138 140.983 267.496V251.122C140.842 251.132 140.699 251.138 140.556 251.141C140.486 251.142 140.404 251.142 140.24 251.142C140.075 251.142 139.993 251.142 139.923 251.141C139.78 251.138 139.638 251.132 139.496 251.122V267.496C139.496 269.138 138.165 270.47 136.523 270.47C134.881 270.47 133.549 269.138 133.549 267.496V248.169C133.549 248.05 133.556 247.932 133.57 247.817C132.647 246.537 132.093 244.973 132.064 243.281Z" fill="#141417"/>
</mask>
<g>
<path fill-rule="evenodd" clip-rule="evenodd" d="M137.415 225.869C134.459 225.869 132.063 223.473 132.063 220.517V219.179C132.063 215.484 135.058 212.488 138.753 212.488C142.448 212.488 145.443 215.484 145.443 219.179V220.517C145.443 223.473 143.047 225.869 140.091 225.869H137.415ZM130.577 244.769C130.576 244.7 130.576 244.618 130.576 244.453V235.533C130.576 231.017 134.237 227.356 138.753 227.356C143.269 227.356 146.93 231.017 146.93 235.533V244.453C146.93 244.618 146.93 244.7 146.929 244.769C146.899 246.462 146.346 248.025 145.423 249.305C145.436 249.42 145.443 249.538 145.443 249.657V268.985C145.443 270.627 144.112 271.958 142.47 271.958C140.828 271.958 139.496 270.627 139.496 268.985V252.61C139.355 252.62 139.213 252.627 139.069 252.629C139 252.63 138.917 252.63 138.753 252.63C138.589 252.63 138.506 252.63 138.437 252.629C138.293 252.627 138.151 252.62 138.01 252.61V268.985C138.01 270.627 136.678 271.958 135.036 271.958C133.394 271.958 132.063 270.627 132.063 268.985V249.657C132.063 249.538 132.07 249.42 132.083 249.305C131.16 248.025 130.607 246.462 130.577 244.769Z" fill="#1D1D2D"/>
</g>
<path d="M128.484 79.2096C128.925 79.0738 129.399 79.0901 129.83 79.256L224.538 115.704C227.019 116.659 228.26 117.136 228.963 118.159C229.665 119.182 229.665 120.512 229.665 123.17V193.097C229.665 194.032 229.665 194.5 229.471 194.908C229.277 195.315 228.914 195.61 228.189 196.201L226.477 197.592C226.045 197.943 225.829 198.119 225.568 198.162C225.306 198.206 225.045 198.109 224.523 197.917L202.905 189.935C200.288 188.969 198.98 188.486 197.747 187.843C196.513 187.201 195.367 186.407 193.075 184.817L136.432 145.545C129.687 140.869 126.315 138.531 124.49 135.045C122.665 131.559 122.665 127.455 122.665 119.248V107.5V87.0881C122.665 83.4694 125.025 80.2738 128.484 79.2096Z" fill="#241838"/>
<g>
<path d="M122.665 85.3241C122.665 82.681 122.665 81.3594 123.533 80.7634C124.4 80.1675 125.634 80.6419 128.101 81.5907L221.537 117.528C224.019 118.482 225.26 118.959 225.962 119.983C226.665 121.006 226.665 122.335 226.665 124.994V193.676C226.665 196.319 226.665 197.641 225.797 198.237C224.93 198.833 223.696 198.358 221.229 197.409L127.793 161.472C125.311 160.518 124.071 160.041 123.368 159.017C122.665 157.994 122.665 156.665 122.665 154.006V85.3241Z" fill="#F6F0FF"/>
</g>
<g filter="url(#filter4_f)">
<path d="M175.315 295.142C173.79 296.038 172.089 296.593 170.329 296.769L165.621 297.239C164.008 297.401 162.439 296.659 161.54 295.31C160.156 293.234 160.782 290.423 162.917 289.132L175 281.82H175.033C175.125 282.391 175.409 282.951 175.875 283.481C176.453 284.137 177.3 284.734 178.368 285.236C179.436 285.738 180.704 286.137 182.099 286.409C183.494 286.68 184.99 286.82 186.5 286.82C188.01 286.82 189.506 286.68 190.901 286.409C192.296 286.137 193.564 285.738 194.632 285.236C195.7 284.734 196.547 284.137 197.125 283.481C197.591 282.951 197.875 282.391 197.967 281.82H198L175.315 295.142Z" fill="#0A0D1D"/>
</g>
<path fill-rule="evenodd" clip-rule="evenodd" d="M198 262.82H175V281.411V281.82H175.033C175.125 282.391 175.409 282.951 175.875 283.481C176.453 284.137 177.3 284.734 178.368 285.236C179.436 285.738 180.704 286.137 182.099 286.409C183.494 286.68 184.99 286.82 186.5 286.82C188.01 286.82 189.506 286.68 190.901 286.409C192.296 286.137 193.564 285.738 194.632 285.236C195.7 284.734 196.547 284.137 197.125 283.481C197.591 282.951 197.875 282.391 197.967 281.82H198V281.411V262.82Z" fill="#202037"/>
<ellipse cx="186.5" cy="262.409" rx="11.5" ry="5.40909" fill="#2B2B47"/>
<ellipse cx="186.5" cy="262.5" rx="8.5" ry="3.5" fill="#202037"/>
<g>
<path d="M183.393 264C185.636 257.2 172.179 247 175.543 230C174.421 240.2 186.757 261.733 189 264H183.393Z" fill="url(#paint0_linear)"/>
</g>
<g>
<path d="M183.182 264C178.547 258.412 174.474 256.176 175.056 245C176.801 253.941 186.673 261.765 189 264H183.182Z" fill="url(#paint1_linear)"/>
</g>
<g filter="url(#filter7_d)">
<path d="M189.978 264C194.74 258.286 195.414 259.429 194.816 248C193.023 257.143 186.391 261.714 184 264H189.978Z" fill="url(#paint2_linear)"/>
</g>
<g filter="url(#filter8_d)">
<path d="M189.8 264C187.48 257.04 195.599 252.4 192.12 235C193.28 245.44 186.32 261.68 184 264H189.8Z" fill="url(#paint3_linear)"/>
</g>
<g filter="url(#filter9_d)">
<path d="M190 264C187.6 257.189 191.8 254.351 187 243C187 253.784 186.4 261.73 184 264H190Z" fill="url(#paint4_linear)"/>
</g>
<g filter="url(#filter10_d)">
<path d="M190 264C187.506 257.091 185.013 257.667 183.143 245C179.402 255.939 186.26 261.697 183.766 264H190Z" fill="url(#paint5_linear)"/>
</g>
<g filter="url(#filter11_d)">
<path d="M190 264C187.597 257.236 186.395 245.4 186.395 233C182.791 243.145 187.597 261.745 185.194 264H190Z" fill="url(#paint6_linear)"/>
</g>
<ellipse cx="186.5" cy="262.5" rx="8.5" ry="3.5" fill="#202037"/>
<defs>
<filter id="filter0_f" x="76.1042" y="227.605" width="66.1879" height="41.5947" filterUnits="userSpaceOnUse" color-interpolation-filters="sRGB">
<feFlood flood-opacity="0" result="BackgroundImageFix"/>
<feBlend mode="normal" in="SourceGraphic" in2="BackgroundImageFix" result="shape"/>
<feGaussianBlur stdDeviation="2" result="effect1_foregroundBlur"/>
</filter>
<filter id="filter1_f" x="51.6814" y="232.395" width="66.1879" height="41.5947" filterUnits="userSpaceOnUse" color-interpolation-filters="sRGB">
<feFlood flood-opacity="0" result="BackgroundImageFix"/>
<feBlend mode="normal" in="SourceGraphic" in2="BackgroundImageFix" result="shape"/>
<feGaussianBlur stdDeviation="2" result="effect1_foregroundBlur"/>
</filter>
<filter id="filter2_f" x="83.6814" y="261.395" width="66.1879" height="41.5947" filterUnits="userSpaceOnUse" color-interpolation-filters="sRGB">
<feFlood flood-opacity="0" result="BackgroundImageFix"/>
<feBlend mode="normal" in="SourceGraphic" in2="BackgroundImageFix" result="shape"/>
<feGaussianBlur stdDeviation="2" result="effect1_foregroundBlur"/>
</filter>
<filter id="filter3_d" x="42.665" y="0.5" width="264" height="278" filterUnits="userSpaceOnUse" color-interpolation-filters="sRGB">
<feFlood flood-opacity="0" result="BackgroundImageFix"/>
<feColorMatrix in="SourceAlpha" type="matrix" values="0 0 0 0 0 0 0 0 0 0 0 0 0 0 0 0 0 0 127 0"/>
<feOffset/>
<feGaussianBlur stdDeviation="40"/>
<feColorMatrix type="matrix" values="0 0 0 0 1 0 0 0 0 1 0 0 0 0 1 0 0 0 0.5 0"/>
<feBlend mode="normal" in2="BackgroundImageFix" result="effect1_dropShadow"/>
<feBlend mode="normal" in="SourceGraphic" in2="effect1_dropShadow" result="shape"/>
</filter>
<filter id="filter4_f" x="156.803" y="277.82" width="45.1968" height="23.4409" filterUnits="userSpaceOnUse" color-interpolation-filters="sRGB">
<feFlood flood-opacity="0" result="BackgroundImageFix"/>
<feBlend mode="normal" in="SourceGraphic" in2="BackgroundImageFix" result="shape"/>
<feGaussianBlur stdDeviation="2" result="effect1_foregroundBlur"/>
</filter>
<filter id="filter5_d" x="171" y="226" width="22" height="42" filterUnits="userSpaceOnUse" color-interpolation-filters="sRGB">
<feFlood flood-opacity="0" result="BackgroundImageFix"/>
<feColorMatrix in="SourceAlpha" type="matrix" values="0 0 0 0 0 0 0 0 0 0 0 0 0 0 0 0 0 0 127 0"/>
<feOffset/>
<feGaussianBlur stdDeviation="2"/>
<feColorMatrix type="matrix" values="0 0 0 0 0.0509804 0 0 0 0 0.0627451 0 0 0 0 0.121569 0 0 0 0.2 0"/>
<feBlend mode="normal" in2="BackgroundImageFix" result="effect1_dropShadow"/>
<feBlend mode="normal" in="SourceGraphic" in2="effect1_dropShadow" result="shape"/>
</filter>
<filter id="filter6_d" x="171" y="241" width="22" height="27" filterUnits="userSpaceOnUse" color-interpolation-filters="sRGB">
<feFlood flood-opacity="0" result="BackgroundImageFix"/>
<feColorMatrix in="SourceAlpha" type="matrix" values="0 0 0 0 0 0 0 0 0 0 0 0 0 0 0 0 0 0 127 0"/>
<feOffset/>
<feGaussianBlur stdDeviation="2"/>
<feColorMatrix type="matrix" values="0 0 0 0 0.0509804 0 0 0 0 0.0627451 0 0 0 0 0.121569 0 0 0 0.2 0"/>
<feBlend mode="normal" in2="BackgroundImageFix" result="effect1_dropShadow"/>
<feBlend mode="normal" in="SourceGraphic" in2="effect1_dropShadow" result="shape"/>
</filter>
<filter id="filter7_d" x="180" y="244" width="19" height="24" filterUnits="userSpaceOnUse" color-interpolation-filters="sRGB">
<feFlood flood-opacity="0" result="BackgroundImageFix"/>
<feColorMatrix in="SourceAlpha" type="matrix" values="0 0 0 0 0 0 0 0 0 0 0 0 0 0 0 0 0 0 127 0"/>
<feOffset/>
<feGaussianBlur stdDeviation="2"/>
<feColorMatrix type="matrix" values="0 0 0 0 0.0509804 0 0 0 0 0.0627451 0 0 0 0 0.121569 0 0 0 0.2 0"/>
<feBlend mode="normal" in2="BackgroundImageFix" result="effect1_dropShadow"/>
<feBlend mode="normal" in="SourceGraphic" in2="effect1_dropShadow" result="shape"/>
</filter>
<filter id="filter8_d" x="180" y="231" width="17" height="37" filterUnits="userSpaceOnUse" color-interpolation-filters="sRGB">
<feFlood flood-opacity="0" result="BackgroundImageFix"/>
<feColorMatrix in="SourceAlpha" type="matrix" values="0 0 0 0 0 0 0 0 0 0 0 0 0 0 0 0 0 0 127 0"/>
<feOffset/>
<feGaussianBlur stdDeviation="2"/>
<feColorMatrix type="matrix" values="0 0 0 0 0.0509804 0 0 0 0 0.0627451 0 0 0 0 0.121569 0 0 0 0.2 0"/>
<feBlend mode="normal" in2="BackgroundImageFix" result="effect1_dropShadow"/>
<feBlend mode="normal" in="SourceGraphic" in2="effect1_dropShadow" result="shape"/>
</filter>
<filter id="filter9_d" x="180" y="239" width="14" height="29" filterUnits="userSpaceOnUse" color-interpolation-filters="sRGB">
<feFlood flood-opacity="0" result="BackgroundImageFix"/>
<feColorMatrix in="SourceAlpha" type="matrix" values="0 0 0 0 0 0 0 0 0 0 0 0 0 0 0 0 0 0 127 0"/>
<feOffset/>
<feGaussianBlur stdDeviation="2"/>
<feColorMatrix type="matrix" values="0 0 0 0 0.0509804 0 0 0 0 0.0627451 0 0 0 0 0.121569 0 0 0 0.2 0"/>
<feBlend mode="normal" in2="BackgroundImageFix" result="effect1_dropShadow"/>
<feBlend mode="normal" in="SourceGraphic" in2="effect1_dropShadow" result="shape"/>
</filter>
<filter id="filter10_d" x="178" y="241" width="16" height="27" filterUnits="userSpaceOnUse" color-interpolation-filters="sRGB">
<feFlood flood-opacity="0" result="BackgroundImageFix"/>
<feColorMatrix in="SourceAlpha" type="matrix" values="0 0 0 0 0 0 0 0 0 0 0 0 0 0 0 0 0 0 127 0"/>
<feOffset/>
<feGaussianBlur stdDeviation="2"/>
<feColorMatrix type="matrix" values="0 0 0 0 0.0509804 0 0 0 0 0.0627451 0 0 0 0 0.121569 0 0 0 0.2 0"/>
<feBlend mode="normal" in2="BackgroundImageFix" result="effect1_dropShadow"/>
<feBlend mode="normal" in="SourceGraphic" in2="effect1_dropShadow" result="shape"/>
</filter>
<filter id="filter11_d" x="181" y="229" width="13" height="39" filterUnits="userSpaceOnUse" color-interpolation-filters="sRGB">
<feFlood flood-opacity="0" result="BackgroundImageFix"/>
<feColorMatrix in="SourceAlpha" type="matrix" values="0 0 0 0 0 0 0 0 0 0 0 0 0 0 0 0 0 0 127 0"/>
<feOffset/>
<feGaussianBlur stdDeviation="2"/>
<feColorMatrix type="matrix" values="0 0 0 0 0.0509804 0 0 0 0 0.0627451 0 0 0 0 0.121569 0 0 0 0.2 0"/>
<feBlend mode="normal" in2="BackgroundImageFix" result="effect1_dropShadow"/>
<feBlend mode="normal" in="SourceGraphic" in2="effect1_dropShadow" result="shape"/>
</filter>
<linearGradient id="paint0_linear" x1="182" y1="230" x2="182" y2="264" gradientUnits="userSpaceOnUse">
<stop stop-color="#45455B"/>
<stop offset="1" stop-color="#202037"/>
</linearGradient>
<linearGradient id="paint1_linear" x1="175" y1="245" x2="176.911" y2="259.532" gradientUnits="userSpaceOnUse">
<stop stop-color="#413753"/>
<stop offset="1" stop-color="#202037"/>
</linearGradient>
<linearGradient id="paint2_linear" x1="195.642" y1="248" x2="190.437" y2="259.347" gradientUnits="userSpaceOnUse">
<stop stop-color="#45455B"/>
<stop offset="1" stop-color="#202037"/>
</linearGradient>
<linearGradient id="paint3_linear" x1="193" y1="235" x2="189.188" y2="259.572" gradientUnits="userSpaceOnUse">
<stop stop-color="#413753"/>
<stop offset="1" stop-color="#202037"/>
</linearGradient>
<linearGradient id="paint4_linear" x1="190" y1="243" x2="187.014" y2="260.719" gradientUnits="userSpaceOnUse">
<stop stop-color="#413753"/>
<stop offset="1" stop-color="#202037"/>
</linearGradient>
<linearGradient id="paint5_linear" x1="190" y1="245" x2="188.139" y2="261.274" gradientUnits="userSpaceOnUse">
<stop stop-color="#413753"/>
<stop offset="1" stop-color="#202037"/>
</linearGradient>
<linearGradient id="paint6_linear" x1="187.5" y1="233" x2="187.142" y2="259.502" gradientUnits="userSpaceOnUse">
<stop stop-color="#45455B"/>
<stop offset="1" stop-color="#202037"/>
</linearGradient>
</defs>
</svg>
